# Blender v2.90.0 OBJ File: 'BeginTrack01.blend'
# www.blender.org
mtllib BeginTrack01.mtl
o BeginTrack01_Cube.001
v -13.500000 -1.061632 -7.641757
v -13.500000 -1.061632 -10.358242
v 13.500000 -1.061632 -7.641757
v 13.500000 -1.061632 -10.358242
v -13.500000 0.175641 -7.641757
v -13.500000 0.721938 -8.473801
v -13.500000 0.561932 -7.885457
v -13.500000 0.721938 -9.526198
v -13.500000 0.175641 -10.358242
v -13.500000 0.561932 -10.114542
v 13.500000 0.721938 -8.473801
v 13.500000 0.175641 -7.641757
v 13.500000 0.561932 -7.885457
v 13.500000 0.175641 -10.358242
v 13.500000 0.721938 -9.526198
v 13.500000 0.561932 -10.114542
v 6.867825 -1.061632 -10.358242
v 0.000000 -1.061632 -10.358242
v -6.867825 -1.061632 -10.358242
v -6.867825 -1.061632 -7.641757
v 0.000000 -1.061632 -7.641757
v 6.867825 -1.061632 -7.641757
v -6.867825 0.721938 -9.526198
v 0.000000 0.721938 -9.526198
v 6.867825 0.721938 -9.526198
v 6.867825 0.561932 -10.114542
v 0.000000 0.561932 -10.114542
v -6.867825 0.561932 -10.114542
v 6.867825 0.175641 -10.358242
v 0.000000 0.175641 -10.358242
v -6.867825 0.175641 -10.358242
v 6.867825 0.721938 -8.473801
v 0.000000 0.721938 -8.473801
v -6.867825 0.721938 -8.473801
v -6.867825 0.561932 -7.885457
v 0.000000 0.561932 -7.885457
v 6.867825 0.561932 -7.885457
v -6.867825 0.175641 -7.641757
v 0.000000 0.175641 -7.641757
v 6.867825 0.175641 -7.641757
v -13.500000 -1.061632 7.641756
v -13.500000 -1.061632 10.358241
v 13.500000 -1.061632 7.641756
v 13.500000 -1.061632 10.358241
v -13.500000 0.175641 7.641756
v -13.500000 0.721939 8.473799
v -13.500000 0.561932 7.885457
v -13.500000 0.721939 9.526198
v -13.500000 0.175641 10.358241
v -13.500000 0.561932 10.114541
v 13.500000 0.721939 8.473799
v 13.500000 0.175641 7.641756
v 13.500000 0.561932 7.885457
v 13.500000 0.175641 10.358241
v 13.500000 0.721939 9.526198
v 13.500000 0.561932 10.114541
v 6.867825 -1.061632 10.358241
v 0.000000 -1.061632 10.358241
v -6.867825 -1.061632 10.358241
v -6.867825 -1.061632 7.641756
v 0.000000 -1.061632 7.641756
v 6.867825 -1.061632 7.641756
v -6.867825 0.721939 9.526198
v 0.000000 0.721939 9.526198
v 6.867825 0.721939 9.526198
v 6.867825 0.561932 10.114541
v 0.000000 0.561932 10.114541
v -6.867825 0.561932 10.114541
v 6.867825 0.175641 10.358241
v 0.000000 0.175641 10.358241
v -6.867825 0.175641 10.358241
v 6.867825 0.721939 8.473799
v 0.000000 0.721939 8.473799
v -6.867825 0.721939 8.473799
v -6.867825 0.561932 7.885457
v 0.000000 0.561932 7.885457
v 6.867825 0.561932 7.885457
v -6.867825 0.175641 7.641756
v 0.000000 0.175641 7.641756
v 6.867825 0.175641 7.641756
v 13.500000 -0.322050 -8.999999
v 13.500000 -1.042050 -8.999999
v 13.500000 -0.322050 8.999999
v 13.500000 -1.042050 8.999999
v -13.500000 -0.322050 -8.999999
v -13.500000 -1.042050 -8.999999
v -13.500000 -0.322050 8.999999
v -13.500000 -1.042050 8.999999
v -2.288695 -0.330208 8.321538
v -2.288695 -0.295092 8.321538
v -2.288695 -0.330208 -8.321532
v -2.288695 -0.295092 -8.321532
v 2.288695 -0.330208 8.321538
v 2.288695 -0.295092 8.321538
v 2.288695 -0.330208 -8.321532
v 2.288695 -0.295092 -8.321532
vt 0.375000 0.500000
vt 0.312500 0.750000
vt 0.312500 0.500000
vt 0.548426 0.437500
vt 0.375000 0.437500
vt 0.625000 0.576574
vt 0.687500 0.500000
vt 0.687500 0.576573
vt 0.625000 0.500000
vt 0.625000 0.437500
vt 0.548426 0.750000
vt 0.375000 0.812500
vt 0.375000 0.750000
vt 0.548426 0.875000
vt 0.375000 0.937500
vt 0.375000 0.875000
vt 0.625000 0.812500
vt 0.625000 0.750000
vt 0.625000 0.937500
vt 0.625000 0.875000
vt 0.687500 0.673426
vt 0.625000 0.673426
vt 0.812500 0.673426
vt 0.750000 0.750000
vt 0.750000 0.673426
vt 0.625000 0.375000
vt 0.548426 0.312500
vt 0.625000 0.312500
vt 0.750000 0.576573
vt 0.812500 0.500000
vt 0.812500 0.576573
vt 0.375000 0.375000
vt 0.375000 0.312500
vt 0.250000 0.500000
vt 0.187500 0.750000
vt 0.187500 0.500000
vt 0.812500 0.673426
vt 0.875000 0.576573
vt 0.812500 0.576573
vt 0.812500 0.750000
vt 0.875000 0.673426
vt 0.548426 0.937500
vt 0.625000 1.000000
vt 0.625000 0.937500
vt 0.375000 1.000000
vt 0.375000 0.937500
vt 0.375000 0.875000
vt 0.548426 0.812500
vt 0.375000 0.812500
vt 0.625000 0.875000
vt 0.625000 0.812500
vt 0.687500 0.750000
vt 0.750000 0.673426
vt 0.687500 0.673426
vt 0.548426 0.250000
vt 0.625000 0.312500
vt 0.625000 0.250000
vt 0.548426 0.375000
vt 0.625000 0.437500
vt 0.625000 0.375000
vt 0.875000 0.500000
vt 0.750000 0.500000
vt 0.687500 0.576573
vt 0.750000 0.576573
vt 0.375000 0.312500
vt 0.375000 0.250000
vt 0.375000 0.437500
vt 0.375000 0.375000
vt 0.125000 0.750000
vt 0.187500 0.500000
vt 0.125000 0.500000
vt 0.250000 0.750000
vt 0.312500 0.500000
vt 0.250000 0.500000
vt 0.548426 0.500000
vt 0.548426 0.812500
vt 0.548426 0.937500
vt 0.687500 0.750000
vt 0.812500 0.750000
vt 0.548426 0.375000
vt 0.750000 0.500000
vt 0.250000 0.750000
vt 0.875000 0.750000
vt 0.548426 1.000000
vt 0.548426 0.875000
vt 0.750000 0.750000
vt 0.548426 0.312500
vt 0.548426 0.437500
vt 0.812500 0.500000
vt 0.687500 0.500000
vt 0.187500 0.750000
vt 0.312500 0.750000
vt 0.875000 0.576573
vt 0.875000 0.673426
vt 0.625000 1.000000
vt 0.375000 1.000000
vt 0.548426 0.250000
vt 0.625000 0.250000
vt 0.875000 0.500000
vt 0.375000 0.250000
vt 0.125000 0.750000
vt 0.125000 0.500000
vt 0.375000 0.500000
vt 0.625000 0.576574
vt 0.625000 0.500000
vt 0.548426 0.750000
vt 0.375000 0.750000
vt 0.625000 0.750000
vt 0.625000 0.673426
vt 0.875000 0.750000
vt 0.548426 1.000000
vt 0.548426 0.500000
vt 0.875000 0.500000
vt 0.625000 0.750000
vt 0.625000 0.500000
vt 0.375000 1.000000
vt 0.375000 0.750000
vt 0.375000 0.500000
vt 0.125000 0.750000
vt 0.125000 0.500000
vt 0.625000 0.250000
vt 0.375000 0.250000
vt 0.875000 0.750000
vt 0.625000 1.000000
vt -0.263772 -2.277023
vt -0.263772 3.277024
vt -0.263772 -2.277023
vt -0.263772 3.277024
vt 1.263773 3.277024
vt 1.263773 3.277024
vt 1.263773 -2.277023
vt 1.263773 -2.277023
vn 0.0000 -0.7071 -0.7071
vn 0.0000 -0.7071 0.7071
vn 0.0000 0.2777 -0.9607
vn 0.0000 0.9912 -0.1324
vn 0.0000 0.8040 -0.5946
vn 0.0000 0.2777 0.9607
vn 0.0000 0.8040 0.5946
vn 0.0000 0.9912 0.1324
vn 0.0000 1.0000 0.0000
vn 0.0000 0.0000 1.0000
vn 0.0000 -1.0000 0.0000
vn 0.0000 0.0000 -1.0000
vn -1.0000 0.0000 0.0000
vn 1.0000 0.0000 0.0000
usemtl Red_BeginTrack01
s 1
f 4/1/1 22/2/2 17/3/1
f 29/4/3 4/1/1 17/5/1
f 15/6/4 26/7/5 25/8/4
f 16/9/5 29/4/3 26/10/5
f 12/11/6 22/12/2 3/13/2
f 39/14/6 20/15/2 21/16/2
f 37/17/7 12/11/6 13/18/7
f 35/19/7 39/14/6 36/20/7
f 32/21/8 13/18/7 11/22/8
f 34/23/8 36/24/7 33/25/8
f 27/26/5 31/27/3 28/28/5
f 24/29/4 28/30/5 23/31/4
f 31/27/3 18/32/1 19/33/1
f 18/34/1 20/35/2 19/36/1
f 25/8/4 11/22/8 15/6/4
f 23/31/4 33/25/8 24/29/4
f 74/37/4 48/38/8 63/39/8
f 75/40/5 46/41/4 74/37/4
f 78/42/3 47/43/5 75/44/5
f 41/45/1 78/42/3 60/46/1
f 61/47/1 80/48/3 62/49/1
f 80/48/3 76/50/5 77/51/5
f 77/52/5 73/53/4 72/54/4
f 49/55/6 68/56/7 50/57/7
f 70/58/6 66/59/7 67/60/7
f 50/61/7 63/39/8 48/38/8
f 67/62/7 65/63/8 64/64/8
f 59/65/2 49/55/6 42/66/2
f 57/67/2 70/58/6 58/68/2
f 41/69/1 59/70/2 42/71/2
f 61/72/1 57/73/2 58/74/2
f 72/54/4 64/64/8 65/63/8
f 4/1/1 3/13/2 22/2/2
f 29/4/3 14/75/3 4/1/1
f 15/6/4 16/9/5 26/7/5
f 16/9/5 14/75/3 29/4/3
f 12/11/6 40/76/6 22/12/2
f 39/14/6 38/77/6 20/15/2
f 37/17/7 40/76/6 12/11/6
f 35/19/7 38/77/6 39/14/6
f 32/21/8 37/78/7 13/18/7
f 34/23/8 35/79/7 36/24/7
f 27/26/5 30/80/3 31/27/3
f 24/29/4 27/81/5 28/30/5
f 31/27/3 30/80/3 18/32/1
f 18/34/1 21/82/2 20/35/2
f 25/8/4 32/21/8 11/22/8
f 23/31/4 34/23/8 33/25/8
f 74/37/4 46/41/4 48/38/8
f 75/40/5 47/83/5 46/41/4
f 78/42/3 45/84/3 47/43/5
f 41/45/1 45/84/3 78/42/3
f 61/47/1 79/85/3 80/48/3
f 80/48/3 79/85/3 76/50/5
f 77/52/5 76/86/5 73/53/4
f 49/55/6 71/87/6 68/56/7
f 70/58/6 69/88/6 66/59/7
f 50/61/7 68/89/7 63/39/8
f 67/62/7 66/90/7 65/63/8
f 59/65/2 71/87/6 49/55/6
f 57/67/2 69/88/6 70/58/6
f 41/69/1 60/91/1 59/70/2
f 61/72/1 62/92/1 57/73/2
f 72/54/4 73/53/4 64/64/8
usemtl White_BeginTrack01
f 8/93/4 34/23/8 23/31/4
f 6/94/8 35/79/7 34/23/8
f 7/95/7 38/77/6 35/19/7
f 38/77/6 1/96/2 20/15/2
f 40/76/6 21/16/2 22/12/2
f 36/20/7 40/76/6 37/17/7
f 33/25/8 37/78/7 32/21/8
f 28/28/5 9/97/3 10/98/5
f 26/10/5 30/80/3 27/26/5
f 23/31/4 10/99/5 8/93/4
f 25/8/4 27/81/5 24/29/4
f 9/97/3 19/33/1 2/100/1
f 30/80/3 17/5/1 18/32/1
f 19/36/1 1/101/2 2/102/1
f 17/3/1 21/82/2 18/34/1
f 24/29/4 32/21/8 25/8/4
f 62/92/1 44/103/2 57/73/2
f 44/103/2 69/88/6 57/67/2
f 66/90/7 55/104/8 65/63/8
f 69/88/6 56/105/7 66/59/7
f 62/49/1 52/106/3 43/107/1
f 60/46/1 79/85/3 61/47/1
f 52/106/3 77/51/5 53/108/5
f 79/85/3 75/44/5 76/50/5
f 53/108/5 72/54/4 51/109/4
f 76/86/5 74/37/4 73/53/4
f 71/87/6 67/60/7 68/56/7
f 68/89/7 64/64/8 63/39/8
f 58/68/2 71/87/6 59/65/2
f 60/91/1 58/74/2 59/70/2
f 51/109/4 65/63/8 55/104/8
f 73/53/4 63/39/8 64/64/8
f 8/93/4 6/94/8 34/23/8
f 6/94/8 7/110/7 35/79/7
f 7/95/7 5/111/6 38/77/6
f 38/77/6 5/111/6 1/96/2
f 40/76/6 39/14/6 21/16/2
f 36/20/7 39/14/6 40/76/6
f 33/25/8 36/24/7 37/78/7
f 28/28/5 31/27/3 9/97/3
f 26/10/5 29/4/3 30/80/3
f 23/31/4 28/30/5 10/99/5
f 25/8/4 26/7/5 27/81/5
f 9/97/3 31/27/3 19/33/1
f 30/80/3 29/4/3 17/5/1
f 19/36/1 20/35/2 1/101/2
f 17/3/1 22/2/2 21/82/2
f 24/29/4 33/25/8 32/21/8
f 62/92/1 43/107/1 44/103/2
f 44/103/2 54/112/6 69/88/6
f 66/90/7 56/105/7 55/104/8
f 69/88/6 54/112/6 56/105/7
f 62/49/1 80/48/3 52/106/3
f 60/46/1 78/42/3 79/85/3
f 52/106/3 80/48/3 77/51/5
f 79/85/3 78/42/3 75/44/5
f 53/108/5 77/52/5 72/54/4
f 76/86/5 75/40/5 74/37/4
f 71/87/6 70/58/6 67/60/7
f 68/89/7 67/62/7 64/64/8
f 58/68/2 70/58/6 71/87/6
f 60/91/1 61/72/1 58/74/2
f 51/109/4 72/54/4 65/63/8
f 73/53/4 74/37/4 63/39/8
usemtl Black_BeginTrack01
s off
f 85/113/9 83/114/9 81/115/9
f 83/114/10 88/116/10 84/117/10
f 82/118/11 88/119/11 86/120/11
f 85/121/12 82/118/12 86/122/12
f 85/113/9 87/123/9 83/114/9
f 83/114/10 87/124/10 88/116/10
f 82/118/11 84/117/11 88/119/11
f 85/121/12 81/115/12 82/118/12
usemtl CheckerboardStart_BeginTrack01
f 90/125/13 91/126/13 89/127/13
f 92/128/12 95/129/12 91/126/12
f 96/130/14 93/131/14 95/129/14
f 94/132/10 89/127/10 93/131/10
f 95/129/11 89/127/11 91/126/11
f 92/128/9 94/132/9 96/130/9
f 90/125/13 92/128/13 91/126/13
f 92/128/12 96/130/12 95/129/12
f 96/130/14 94/132/14 93/131/14
f 94/132/10 90/125/10 89/127/10
f 95/129/11 93/131/11 89/127/11
f 92/128/9 90/125/9 94/132/9
