# Blender v2.90.0 OBJ File: 'Ramp1.blend'
# www.blender.org
mtllib Ramp1.mtl
o Ramp1_Cube.002
v -6.665275 -1.964965 7.650963
v -6.665275 5.162430 7.650963
v -6.665275 -1.964965 -7.650963
v -6.665275 5.162430 -7.650963
v 6.665275 -1.964965 7.650963
v 6.665275 -1.232500 7.650963
v 6.665275 -1.964965 -7.650963
v 6.665275 -1.232500 -7.650963
v -6.665275 -1.964965 0.000000
v -6.665275 5.162430 0.000000
v 6.665275 -1.964965 0.000000
v 6.665275 -1.232500 0.000000
vt 1.234456 0.790895
vt 1.136719 0.839763
vt 1.136719 0.790895
vt 1.234456 0.937500
vt 1.136719 0.937500
vt 1.234456 0.986368
vt 1.136719 1.035237
vt 1.136719 0.986368
vt 1.234456 1.035237
vt 1.136719 1.132973
vt 1.038982 1.035237
vt 1.038982 0.986368
vt 0.725017 0.875297
vt 0.279292 0.098694
vt 0.725017 0.098694
vt 0.725167 0.875297
vt 0.279442 0.098694
vt 0.725167 0.098694
vt 1.038982 0.937500
vt 1.234456 0.742027
vt 1.136719 0.742027
vt 1.234456 0.839763
vt 1.234456 1.132973
vt 0.279292 0.875297
vt 0.279442 0.875297
vn -1.0000 0.0000 0.0000
vn 0.0000 0.0000 -1.0000
vn 1.0000 0.0000 0.0000
vn 0.0000 0.0000 1.0000
vn 0.0000 -1.0000 0.0000
vn 0.4325 0.9016 0.0000
usemtl Wood_Ramp1
s off
f 10/1/1 3/2/1 9/3/1
f 3/2/2 8/4/2 7/5/2
f 12/6/3 5/7/3 11/8/3
f 6/9/4 1/10/4 5/7/4
f 11/8/5 1/11/5 9/12/5
f 10/13/6 6/14/6 12/15/6
f 4/16/6 12/17/6 8/18/6
f 7/5/5 9/12/5 3/19/5
f 8/4/3 11/8/3 7/5/3
f 2/20/1 9/3/1 1/21/1
f 10/1/1 4/22/1 3/2/1
f 3/2/2 4/22/2 8/4/2
f 12/6/3 6/9/3 5/7/3
f 6/9/4 2/23/4 1/10/4
f 11/8/5 5/7/5 1/11/5
f 10/13/6 2/24/6 6/14/6
f 4/16/6 10/25/6 12/17/6
f 7/5/5 11/8/5 9/12/5
f 8/4/3 12/6/3 11/8/3
f 2/20/1 10/1/1 9/3/1
