# Blender v2.90.0 OBJ File: 'Tent01.blend'
# www.blender.org
mtllib Tent01.mtl
o Tent01_Cylinder
v 14.999999 -15.303857 12.038960
v 14.999999 5.719510 12.038960
v 15.564880 -15.303857 12.222502
v 15.564880 5.719510 12.222502
v 15.913999 -15.303857 12.703020
v 15.913999 5.719510 12.703020
v 15.913999 -15.303857 13.296973
v 15.913999 5.719510 13.296973
v 15.564880 -15.303857 13.777492
v 15.564880 5.719510 13.777492
v 14.999999 -15.303857 13.961033
v 14.999999 5.719510 13.961033
v 14.435118 -15.303857 13.777492
v 14.435118 5.719510 13.777492
v 14.085999 -15.303857 13.296973
v 14.085999 5.719510 13.296973
v 14.085999 -15.303857 12.703020
v 14.085999 5.719510 12.703020
v 14.435118 -15.303857 12.222502
v 14.435118 5.719510 12.222502
v 14.999999 -15.303857 -12.038963
v 14.999999 5.719511 -12.038963
v 15.564880 -15.303857 -12.222507
v 15.564880 5.719511 -12.222507
v 15.913999 -15.303857 -12.703026
v 15.913999 5.719511 -12.703026
v 15.913999 -15.303857 -13.296972
v 15.913999 5.719511 -13.296972
v 15.564880 -15.303857 -13.777490
v 15.564880 5.719511 -13.777490
v 14.999999 -15.303857 -13.961034
v 14.999999 5.719511 -13.961034
v 14.435118 -15.303857 -13.777490
v 14.435118 5.719511 -13.777490
v 14.085999 -15.303857 -13.296972
v 14.085999 5.719511 -13.296972
v 14.085999 -15.303857 -12.703026
v 14.085999 5.719511 -12.703026
v 14.435118 -15.303857 -12.222501
v 14.435118 5.719511 -12.222501
v -15.000004 -15.303857 12.038960
v -15.000004 5.719511 12.038960
v -14.435122 -15.303857 12.222501
v -14.435122 5.719511 12.222501
v -14.086004 -15.303857 12.703019
v -14.086004 5.719511 12.703019
v -14.086004 -15.303857 13.296972
v -14.086004 5.719511 13.296972
v -14.435122 -15.303857 13.777490
v -14.435122 5.719511 13.777490
v -15.000004 -15.303857 13.961031
v -15.000004 5.719511 13.961031
v -15.564885 -15.303857 13.777490
v -15.564885 5.719511 13.777490
v -15.914003 -15.303857 13.296972
v -15.914003 5.719511 13.296972
v -15.914003 -15.303857 12.703019
v -15.914003 5.719511 12.703019
v -15.564885 -15.303857 12.222501
v -15.564885 5.719511 12.222501
v -15.000002 -15.303859 -12.038965
v -15.000002 5.719512 -12.038965
v -14.435121 -15.303859 -12.222503
v -14.435121 5.719512 -12.222503
v -14.086002 -15.303859 -12.703021
v -14.086002 5.719512 -12.703021
v -14.086002 -15.303859 -13.296968
v -14.086002 5.719512 -13.296968
v -14.435121 -15.303859 -13.777484
v -14.435121 5.719512 -13.777484
v -15.000002 -15.303859 -13.961038
v -15.000002 5.719512 -13.961038
v -15.564882 -15.303859 -13.777484
v -15.564882 5.719512 -13.777484
v -15.914001 -15.303859 -13.296968
v -15.914001 5.719512 -13.296968
v -15.914001 -15.303859 -12.703021
v -15.914001 5.719512 -12.703021
v -15.564882 -15.303859 -12.222503
v -15.564882 5.719512 -12.222503
v -13.963440 5.338445 12.232882
v -16.529039 9.224110 14.480517
v -13.963440 5.338445 -12.232885
v -16.529039 9.224110 -14.480519
v 13.963430 5.338445 12.232882
v 16.529030 9.224110 14.480517
v 13.963430 5.338445 -12.232885
v 16.529030 9.224110 -14.480519
v -0.415134 22.855360 0.363679
v -0.415134 22.855360 -0.363682
v 0.415125 22.855360 -0.363682
v 0.415125 22.855360 0.363679
v -7.559401 14.612538 6.622525
v -3.995198 18.311611 3.500051
v -3.995198 18.311611 -3.500053
v -7.559399 14.612538 -6.622528
v 7.559392 14.612538 6.622525
v 3.995190 18.311611 3.500051
v 3.995189 18.311611 -3.500053
v 7.559391 14.612538 -6.622528
v -12.112499 11.495984 -10.611341
v 12.112490 11.495984 -10.611341
v -12.112501 11.495984 10.611339
v 12.112491 11.495984 10.611339
v -16.529039 5.338445 -14.480519
v -16.529039 5.338445 14.480517
v 16.529030 5.338445 -14.480519
v 16.529030 5.338445 14.480517
v -11.932886 8.666936 -10.453987
v -11.932886 8.666936 10.453985
v 11.932877 8.666936 -10.453987
v 11.932877 8.666936 10.453985
vt 1.000000 1.000000
vt 0.900000 0.500000
vt 1.000000 0.500000
vt 0.900000 1.000000
vt 0.800000 0.500000
vt 0.800000 1.000000
vt 0.700000 0.500000
vt 0.700000 1.000000
vt 0.600000 0.500000
vt 0.600000 1.000000
vt 0.500000 0.500000
vt 0.500000 1.000000
vt 0.400000 0.500000
vt 0.400000 1.000000
vt 0.300000 0.500000
vt 0.300000 1.000000
vt 0.200000 0.500000
vt 0.021746 0.324164
vt 0.391068 0.055836
vt 0.478254 0.324164
vt 0.200000 1.000000
vt 0.100000 0.500000
vt 0.100000 1.000000
vt -0.000000 0.500000
vt 0.978254 0.175836
vt 0.521746 0.175836
vt 0.608932 0.444164
vt 0.900000 0.500000
vt 1.000000 1.000000
vt 1.000000 0.500000
vt 0.800000 0.500000
vt 0.900000 1.000000
vt 0.700000 0.500000
vt 0.800000 1.000000
vt 0.600000 0.500000
vt 0.700000 1.000000
vt 0.500000 0.500000
vt 0.600000 1.000000
vt 0.400000 0.500000
vt 0.500000 1.000000
vt 0.300000 0.500000
vt 0.400000 1.000000
vt 0.200000 0.500000
vt 0.300000 1.000000
vt 0.108932 0.055836
vt 0.021746 0.324164
vt 0.250000 0.490000
vt 0.100000 0.500000
vt 0.200000 1.000000
vt -0.000000 0.500000
vt 0.100000 1.000000
vt 0.521746 0.175836
vt 0.978254 0.175836
vt 0.891068 0.444164
vt 1.000000 1.000000
vt 0.900000 0.500000
vt 1.000000 0.500000
vt 0.900000 1.000000
vt 0.800000 0.500000
vt 0.800000 1.000000
vt 0.700000 0.500000
vt 0.700000 1.000000
vt 0.600000 0.500000
vt 0.600000 1.000000
vt 0.500000 0.500000
vt 0.500000 1.000000
vt 0.400000 0.500000
vt 0.400000 1.000000
vt 0.300000 0.500000
vt 0.300000 1.000000
vt 0.200000 0.500000
vt 0.021746 0.324164
vt 0.391068 0.055836
vt 0.478254 0.324164
vt 0.200000 1.000000
vt 0.100000 0.500000
vt 0.100000 1.000000
vt -0.000000 0.500000
vt 0.978254 0.175836
vt 0.521746 0.175836
vt 0.608932 0.444164
vt 0.900000 0.500000
vt 1.000000 1.000000
vt 1.000000 0.500000
vt 0.800000 0.500000
vt 0.900000 1.000000
vt 0.700000 0.500000
vt 0.800000 1.000000
vt 0.600000 0.500000
vt 0.700000 1.000000
vt 0.500000 0.500000
vt 0.600000 1.000000
vt 0.400000 0.500000
vt 0.500000 1.000000
vt 0.300000 0.500000
vt 0.400000 1.000000
vt 0.200000 0.500000
vt 0.300000 1.000000
vt 0.108932 0.055836
vt 0.021746 0.324164
vt 0.250000 0.490000
vt 0.100000 0.500000
vt 0.200000 1.000000
vt -0.000000 0.500000
vt 0.100000 1.000000
vt 0.521746 0.175836
vt 0.978254 0.175836
vt 0.891068 0.444164
vt 0.391068 0.444164
vt 0.250000 0.490000
vt 0.108932 0.444164
vt 0.021746 0.175836
vt 0.108932 0.055836
vt 0.250000 0.010000
vt 0.478254 0.175836
vt -0.000000 1.000000
vt 0.750000 0.490000
vt 0.891068 0.444164
vt 0.978254 0.324164
vt 0.891068 0.055836
vt 0.750000 0.010000
vt 0.608932 0.055836
vt 0.521746 0.324164
vt 0.391068 0.444164
vt 0.391068 0.055836
vt 0.478254 0.324164
vt 0.478254 0.175836
vt 0.250000 0.010000
vt 0.021746 0.175836
vt 0.108932 0.444164
vt -0.000000 1.000000
vt 0.750000 0.490000
vt 0.608932 0.444164
vt 0.521746 0.324164
vt 0.608932 0.055836
vt 0.750000 0.010000
vt 0.891068 0.055836
vt 0.978254 0.324164
vt 0.391068 0.444164
vt 0.250000 0.490000
vt 0.108932 0.444164
vt 0.021746 0.175836
vt 0.108932 0.055836
vt 0.250000 0.010000
vt 0.478254 0.175836
vt -0.000000 1.000000
vt 0.750000 0.490000
vt 0.891068 0.444164
vt 0.978254 0.324164
vt 0.891068 0.055836
vt 0.750000 0.010000
vt 0.608932 0.055836
vt 0.521746 0.324164
vt 0.391068 0.444164
vt 0.391068 0.055836
vt 0.478254 0.324164
vt 0.478254 0.175836
vt 0.250000 0.010000
vt 0.021746 0.175836
vt 0.108932 0.444164
vt -0.000000 1.000000
vt 0.750000 0.490000
vt 0.608932 0.444164
vt 0.521746 0.324164
vt 0.608932 0.055836
vt 0.750000 0.010000
vt 0.891068 0.055836
vt 0.978254 0.324164
vt 0.625000 0.000000
vt 0.375000 0.250000
vt 0.375000 0.000000
vt 0.625000 0.250000
vt 0.375000 0.500000
vt 0.625000 0.500000
vt 0.375000 0.750000
vt 0.625000 0.750000
vt 0.375000 1.000000
vt 0.144402 0.730598
vt 0.355598 0.730598
vt 0.355598 0.730598
vt 0.625000 0.250000
vt 0.625000 0.000000
vt 0.625000 0.250000
vt 0.875000 0.500000
vt 0.625000 0.750000
vt 0.625000 0.500000
vt 0.625000 0.750000
vt 0.625000 1.000000
vt 0.625000 1.000000
vt 0.625000 0.500000
vt 0.625000 0.500000
vt 0.625000 0.750000
vt 0.625000 0.750000
vt 0.625000 0.500000
vt 0.625000 0.250000
vt 0.625000 1.000000
vt 0.625000 1.000000
vt 0.625000 0.000000
vt 0.625000 0.250000
vt 0.625000 0.000000
vt 0.625000 1.000000
vt 0.125000 0.500000
vt 0.144402 0.519402
vt 0.355598 0.519402
vt 0.125000 0.750000
vt 0.355598 0.519402
vt 0.144402 0.730598
vt 0.144402 0.519402
vt 0.625000 0.000000
vt 0.875000 0.750000
vn 0.3090 0.0000 -0.9511
vn 0.8090 0.0000 -0.5878
vn 1.0000 0.0000 0.0000
vn 0.8090 0.0000 0.5878
vn 0.3090 0.0000 0.9511
vn -0.3090 0.0000 0.9511
vn -0.8090 0.0000 0.5878
vn -1.0000 0.0000 0.0000
vn 0.0000 1.0000 0.0000
vn -0.8090 0.0000 -0.5878
vn -0.3090 0.0000 -0.9511
vn 0.0000 -1.0000 0.0000
vn 0.3090 0.0000 -0.9510
vn -0.3090 0.0000 -0.9510
vn 0.0000 0.0000 -1.0000
vn 0.0000 0.0000 1.0000
vn 0.0000 -0.4714 -0.8819
vn -0.7855 0.6189 0.0000
vn 0.0000 0.5681 0.8230
vn 0.0000 0.5681 -0.8230
vn 0.7855 0.6189 0.0000
vn 0.5648 0.8252 0.0000
vn 0.7201 0.6939 -0.0000
vn 0.0000 0.7880 -0.6157
vn 0.0000 0.6450 -0.7642
vn 0.0000 0.7880 0.6157
vn 0.0000 0.6450 0.7642
vn -0.5648 0.8252 0.0000
vn -0.7201 0.6939 -0.0000
vn -0.4574 0.8892 -0.0000
vn 0.0000 0.8623 0.5063
vn 0.0000 0.8623 -0.5063
vn 0.4574 0.8892 0.0000
vn 0.0000 -0.4714 0.8819
vn -0.8537 -0.5208 0.0000
vn 0.8537 -0.5208 0.0000
usemtl DarkBlue_Tent01
s off
f 2/1/1 3/2/1 1/3/1
f 4/4/2 5/5/2 3/2/2
f 6/6/3 7/7/3 5/5/3
f 8/8/4 9/9/4 7/7/4
f 10/10/5 11/11/5 9/9/5
f 12/12/6 13/13/6 11/11/6
f 14/14/7 15/15/7 13/13/7
f 16/16/8 17/17/8 15/15/8
f 18/18/9 10/19/9 6/20/9
f 18/21/10 19/22/10 17/17/10
f 20/23/11 1/24/11 19/22/11
f 7/25/12 15/26/12 19/27/12
f 23/28/5 22/29/5 21/30/5
f 25/31/4 24/32/4 23/28/4
f 27/33/3 26/34/3 25/31/3
f 29/35/2 28/36/2 27/33/2
f 31/37/1 30/38/1 29/35/1
f 33/39/11 32/40/11 31/37/11
f 35/41/10 34/42/10 33/39/10
f 37/43/8 36/44/8 35/41/8
f 34/45/9 38/46/9 22/47/9
f 39/48/7 38/49/7 37/43/7
f 21/50/6 40/51/6 39/48/6
f 35/52/12 27/53/12 23/54/12
f 42/55/1 43/56/1 41/57/1
f 44/58/2 45/59/2 43/56/2
f 46/60/3 47/61/3 45/59/3
f 48/62/4 49/63/4 47/61/4
f 50/64/5 51/65/5 49/63/5
f 52/66/6 53/67/6 51/65/6
f 54/68/7 55/69/7 53/67/7
f 56/70/8 57/71/8 55/69/8
f 58/72/9 50/73/9 46/74/9
f 58/75/10 59/76/10 57/71/10
f 60/77/11 41/78/11 59/76/11
f 47/79/12 55/80/12 59/81/12
f 63/82/5 62/83/5 61/84/5
f 65/85/4 64/86/4 63/82/4
f 67/87/3 66/88/3 65/85/3
f 69/89/2 68/90/2 67/87/2
f 71/91/13 70/92/13 69/89/13
f 73/93/11 72/94/11 71/91/11
f 75/95/10 74/96/10 73/93/10
f 77/97/8 76/98/8 75/95/8
f 74/99/9 78/100/9 62/101/9
f 79/102/7 78/103/7 77/97/7
f 61/104/6 80/105/6 79/102/6
f 75/106/12 67/107/12 63/108/12
f 2/1/1 4/4/1 3/2/1
f 4/4/2 6/6/2 5/5/2
f 6/6/3 8/8/3 7/7/3
f 8/8/4 10/10/4 9/9/4
f 10/10/5 12/12/5 11/11/5
f 12/12/6 14/14/6 13/13/6
f 14/14/7 16/16/7 15/15/7
f 16/16/8 18/21/8 17/17/8
f 6/20/9 4/109/9 2/110/9
f 2/110/9 20/111/9 6/20/9
f 20/111/9 18/18/9 6/20/9
f 18/18/9 16/112/9 14/113/9
f 14/113/9 12/114/9 10/19/9
f 10/19/9 8/115/9 6/20/9
f 18/18/9 14/113/9 10/19/9
f 18/21/10 20/23/10 19/22/10
f 20/23/11 2/116/11 1/24/11
f 19/27/12 1/117/12 3/118/12
f 3/118/12 5/119/12 7/25/12
f 7/25/12 9/120/12 11/121/12
f 11/121/12 13/122/12 7/25/12
f 13/122/12 15/26/12 7/25/12
f 15/26/12 17/123/12 19/27/12
f 19/27/12 3/118/12 7/25/12
f 23/28/5 24/32/5 22/29/5
f 25/31/4 26/34/4 24/32/4
f 27/33/3 28/36/3 26/34/3
f 29/35/2 30/38/2 28/36/2
f 31/37/1 32/40/1 30/38/1
f 33/39/11 34/42/11 32/40/11
f 35/41/10 36/44/10 34/42/10
f 37/43/8 38/49/8 36/44/8
f 22/47/9 24/124/9 30/125/9
f 24/124/9 26/126/9 30/125/9
f 26/126/9 28/127/9 30/125/9
f 30/125/9 32/128/9 34/45/9
f 34/45/9 36/129/9 38/46/9
f 38/46/9 40/130/9 22/47/9
f 30/125/9 34/45/9 22/47/9
f 39/48/7 40/51/7 38/49/7
f 21/50/6 22/131/6 40/51/6
f 23/54/12 21/132/12 39/133/12
f 39/133/12 37/134/12 23/54/12
f 37/134/12 35/52/12 23/54/12
f 35/52/12 33/135/12 31/136/12
f 31/136/12 29/137/12 35/52/12
f 29/137/12 27/53/12 35/52/12
f 27/53/12 25/138/12 23/54/12
f 42/55/1 44/58/1 43/56/1
f 44/58/2 46/60/2 45/59/2
f 46/60/3 48/62/3 47/61/3
f 48/62/4 50/64/4 49/63/4
f 50/64/5 52/66/5 51/65/5
f 52/66/6 54/68/6 53/67/6
f 54/68/7 56/70/7 55/69/7
f 56/70/8 58/75/8 57/71/8
f 46/74/9 44/139/9 42/140/9
f 42/140/9 60/141/9 46/74/9
f 60/141/9 58/72/9 46/74/9
f 58/72/9 56/142/9 54/143/9
f 54/143/9 52/144/9 50/73/9
f 50/73/9 48/145/9 46/74/9
f 58/72/9 54/143/9 50/73/9
f 58/75/10 60/77/10 59/76/10
f 60/77/11 42/146/11 41/78/11
f 59/81/12 41/147/12 43/148/12
f 43/148/12 45/149/12 47/79/12
f 47/79/12 49/150/12 51/151/12
f 51/151/12 53/152/12 47/79/12
f 53/152/12 55/80/12 47/79/12
f 55/80/12 57/153/12 59/81/12
f 59/81/12 43/148/12 47/79/12
f 63/82/5 64/86/5 62/83/5
f 65/85/4 66/88/4 64/86/4
f 67/87/3 68/90/3 66/88/3
f 69/89/2 70/92/2 68/90/2
f 71/91/1 72/94/1 70/92/1
f 73/93/14 74/96/14 72/94/14
f 75/95/10 76/98/10 74/96/10
f 77/97/8 78/103/8 76/98/8
f 62/101/9 64/154/9 70/155/9
f 64/154/9 66/156/9 70/155/9
f 66/156/9 68/157/9 70/155/9
f 70/155/9 72/158/9 74/99/9
f 74/99/9 76/159/9 78/100/9
f 78/100/9 80/160/9 62/101/9
f 70/155/9 74/99/9 62/101/9
f 79/102/7 80/105/7 78/103/7
f 61/104/6 62/161/6 80/105/6
f 63/108/12 61/162/12 75/106/12
f 61/162/12 79/163/12 75/106/12
f 79/163/12 77/164/12 75/106/12
f 75/106/12 73/165/12 67/107/12
f 73/165/12 71/166/12 69/167/12
f 67/107/12 73/165/12 69/167/12
f 67/107/12 65/168/12 63/108/12
usemtl White_Tent01
f 82/169/8 105/170/8 106/171/8
f 84/172/15 107/173/15 105/170/15
f 88/174/3 108/175/3 107/173/3
f 86/176/16 106/177/16 108/175/16
f 81/178/17 112/179/17 85/180/17
f 95/181/18 89/182/18 90/183/18
f 90/184/9 92/185/9 91/186/9
f 98/187/19 89/188/19 94/189/19
f 95/181/20 91/186/20 99/190/20
f 99/190/21 92/185/21 98/187/21
f 102/191/22 97/192/22 104/193/22
f 100/194/23 98/187/23 97/192/23
f 101/195/24 100/194/24 102/191/24
f 100/194/25 95/181/25 99/190/25
f 104/193/26 93/196/26 103/197/26
f 97/192/27 94/189/27 93/196/27
f 103/198/28 96/199/28 101/195/28
f 93/200/29 95/181/29 96/199/29
f 84/172/30 103/198/30 101/195/30
f 86/176/31 103/197/31 82/201/31
f 84/172/32 102/191/32 88/174/32
f 88/174/33 104/193/33 86/176/33
f 81/178/12 105/202/12 83/203/12
f 83/203/12 107/173/12 87/204/12
f 87/204/12 108/175/12 85/180/12
f 85/180/12 106/205/12 81/178/12
f 111/206/12 110/207/12 109/208/12
f 87/204/34 109/208/34 83/203/34
f 85/180/35 111/206/35 87/204/35
f 83/203/36 110/207/36 81/178/36
f 82/169/8 84/172/8 105/170/8
f 84/172/15 88/174/15 107/173/15
f 88/174/3 86/176/3 108/175/3
f 86/176/16 82/201/16 106/177/16
f 81/178/17 110/207/17 112/179/17
f 95/181/18 94/209/18 89/182/18
f 90/184/9 89/210/9 92/185/9
f 98/187/19 92/185/19 89/188/19
f 95/181/20 90/183/20 91/186/20
f 99/190/21 91/186/21 92/185/21
f 102/191/22 100/194/22 97/192/22
f 100/194/23 99/190/23 98/187/23
f 101/195/24 96/199/24 100/194/24
f 100/194/25 96/199/25 95/181/25
f 104/193/26 97/192/26 93/196/26
f 97/192/27 98/187/27 94/189/27
f 103/198/28 93/200/28 96/199/28
f 93/200/29 94/209/29 95/181/29
f 84/172/30 82/169/30 103/198/30
f 86/176/31 104/193/31 103/197/31
f 84/172/32 101/195/32 102/191/32
f 88/174/33 102/191/33 104/193/33
f 81/178/12 106/205/12 105/202/12
f 83/203/12 105/202/12 107/173/12
f 87/204/12 107/173/12 108/175/12
f 85/180/12 108/175/12 106/205/12
f 111/206/12 112/179/12 110/207/12
f 87/204/34 111/206/34 109/208/34
f 85/180/35 112/179/35 111/206/35
f 83/203/36 109/208/36 110/207/36
